<svg viewBox="0 0 100 100" xml:space="preserve" xmlns="http://www.w3.org/2000/svg"><path d="M85.43 27.815H70.549v-4.361a.978.978 0 0 0-.978-.978H15.586a.978.978 0 0 0-.978.978v44.907c0 6.557 2.107 12.468 5.463 16.599H15.13c-2.876 0-5.216 2.243-5.216 5.012 0 2.756 2.34 4.998 5.216 4.998h54.896c2.876 0 5.216-2.242 5.216-5.011 0-2.756-2.34-4.999-5.216-4.999h-4.941c1.993-2.45 3.562-5.541 4.493-9.103.364-1.379.63-2.832.787-4.307.102-.833.152-1.725.169-2.642l12.031-9.448c4.779-3.739 7.521-9.382 7.521-15.481V32.471a4.661 4.661 0 0 0-4.656-4.656zm-14.881 6.982h10.132c.855 0 1.551.701 1.551 1.562v8.946c0 4.164-4.149 7.87-5.948 9.281l-5.736 4.682V34.797zm2.736 55.174c0 1.677-1.463 3.042-3.26 3.042H15.129c-1.797 0-3.26-1.365-3.26-3.055 0-1.678 1.462-3.042 3.26-3.042h6.77c2.739 2.541 6.063 4.037 9.646 4.037h22.066c3.536 0 6.88-1.473 9.651-4.037h6.763c1.797 0 3.26 1.365 3.26 3.055zm-5.6-14.612c-2.13 8.157-7.787 13.638-14.074 13.638H31.545c-8.261 0-14.981-9.257-14.981-20.635V24.433h52.029V68.362c0 1.037-.057 2.03-.171 2.966a27.234 27.234 0 0 1-.737 4.031zM88.13 43.98c0 5.494-2.468 10.574-6.771 13.941L70.55 66.409v-4.614l6.959-5.681c2.009-1.577 6.681-5.786 6.681-10.809v-8.946a3.516 3.516 0 0 0-3.508-3.518H70.549v-3.069H85.43c1.488 0 2.7 1.211 2.7 2.7V43.98zM60.758 18.702a.978.978 0 0 0 1.956 0c0-.804.194-1.155.461-1.64.314-.569.705-1.277.705-2.586 0-1.31-.391-2.02-.705-2.589-.267-.487-.461-.838-.461-1.645 0-.806.194-1.158.461-1.645.314-.569.705-1.279.705-2.589a.978.978 0 0 0-1.956 0c0 .807-.194 1.158-.461 1.645-.314.569-.705 1.279-.705 2.588s.391 2.019.705 2.588c.267.487.461.838.461 1.645 0 .804-.194 1.155-.461 1.64-.314.571-.705 1.279-.705 2.588zM41.016 18.702a.978.978 0 0 0 1.956 0c0-.804.193-1.155.461-1.64.314-.569.706-1.277.706-2.586 0-1.31-.391-2.02-.705-2.589-.268-.486-.462-.838-.462-1.644 0-.806.194-1.158.462-1.644.314-.57.705-1.279.705-2.589a.978.978 0 0 0-1.956 0c0 .807-.194 1.158-.462 1.645-.314.57-.705 1.279-.705 2.589s.391 2.019.705 2.589c.268.486.462.838.462 1.645 0 .804-.193 1.155-.461 1.64-.315.567-.706 1.275-.706 2.584zM21.274 18.702a.978.978 0 0 0 1.956 0c0-.804.193-1.155.461-1.64.314-.569.706-1.277.706-2.586 0-1.31-.391-2.02-.705-2.589-.268-.486-.462-.838-.462-1.644 0-.806.194-1.158.462-1.644.314-.57.705-1.279.705-2.589a.978.978 0 0 0-1.956 0c0 .807-.194 1.158-.462 1.645-.314.57-.705 1.279-.705 2.589s.391 2.019.705 2.589c.268.486.462.838.462 1.645 0 .804-.193 1.155-.461 1.64-.315.567-.706 1.275-.706 2.584z" fill="#4f4c4c" class="fill-000000"></path><path d="M42.566 38.496c-.041 0-.08.008-.12.008l-.007.001c-6.636.093-12.014 7.317-12.014 16.193 0 8.933 5.446 16.201 12.141 16.201 6.696 0 12.143-7.268 12.143-16.201 0-8.934-5.447-16.202-12.143-16.202zM32.38 54.697c0-7.698 4.392-13.974 9.854-14.222.766.686 2.96 2.91 3.159 6.006.16 2.498-1.023 5.029-3.518 7.524-2.91 2.91-4.286 5.949-4.087 9.033.143 2.224 1.085 4.051 2.039 5.365-4.289-1.679-7.447-7.18-7.447-13.706zm10.518 14.222c-.765-.686-2.96-2.91-3.158-6.005-.16-2.498 1.023-5.029 3.518-7.524 2.91-2.91 4.286-5.949 4.088-9.033-.143-2.224-1.085-4.051-2.04-5.365 4.288 1.679 7.447 7.181 7.447 13.707-.001 7.696-4.393 13.972-9.855 14.22z" fill="#4f4c4c" class="fill-000000"></path></svg>