<svg viewBox="0 0 64 64" xml:space="preserve" xmlns="http://www.w3.org/2000/svg" fill-rule="evenodd" clip-rule="evenodd" stroke-linejoin="round" stroke-miterlimit="2"><path d="M27.001 37.914c-6.509-.1-12.855-.403-19.337-.911-.06-.005-.278-.003-.328-.003-1.011 0-2.021.656-2.78 1.939-.875 1.481-1.47 3.866-1.47 6.561s.595 5.08 1.47 6.561C5.315 53.344 6.325 54 7.336 54c.05 0 .323.001.412-.013 6.464-1.061 12.78-1.719 19.252-1.948V60a.998.998 0 0 0 1.6.8l3.4-2.55 3.4 2.55A.999.999 0 0 0 37 60v-7.958a153.32 153.32 0 0 1 19.338 1.945c.089.014.362.013.412.013 1.012 0 2.021-.656 2.78-1.939C60.405 50.58 61 48.195 61 45.5s-.595-5.08-1.47-6.561C58.771 37.656 57.762 37 56.75 37c-.05 0-.268-.002-.328.003a310.16 310.16 0 0 1-19.423.91A3 3 0 0 0 34 35h-4a3 3 0 0 0-2.999 2.914ZM35 50.155A5.72 5.72 0 0 1 32 51a5.72 5.72 0 0 1-3-.845V58l2.4-1.8a.999.999 0 0 1 1.2 0L35 58v-7.845ZM56.75 39c.426 0 .739.417 1.058.957C58.546 41.206 59 43.227 59 45.5s-.454 4.294-1.192 5.543c-.319.54-.632.957-1.058.957-.426 0-.739-.417-1.058-.957-.738-1.249-1.192-3.27-1.192-5.543s.454-4.294 1.192-5.543c.319-.54.632-.957 1.058-.957ZM7.336 39c.426 0 .739.417 1.058.957.738 1.249 1.192 3.27 1.192 5.543s-.454 4.294-1.192 5.543c-.319.54-.632.957-1.058.957-.426 0-.739-.417-1.058-.957-.738-1.249-1.192-3.27-1.192-5.543s.454-4.294 1.192-5.543c.319-.54.632-.957 1.058-.957Zm46.488.201A313.03 313.03 0 0 1 37 39.913v2.497c.477.838.75 1.808.75 2.84a5.726 5.726 0 0 1-.75 2.84v1.951a154.24 154.24 0 0 1 16.699 1.514c-.725-1.489-1.199-3.649-1.199-6.055 0-2.541.529-4.807 1.324-6.299Zm-43.561 0c.794 1.492 1.323 3.758 1.323 6.299 0 2.406-.474 4.564-1.198 6.054A150.422 150.422 0 0 1 27 50.038V48.09a5.726 5.726 0 0 1-.75-2.84c0-1.032.273-2.002.75-2.84v-2.496a305.78 305.78 0 0 1-16.737-.713ZM32 41.5c2.07 0 3.75 1.68 3.75 3.75 0 2.07-1.68 3.75-3.75 3.75-2.07 0-3.75-1.68-3.75-3.75 0-2.07 1.68-3.75 3.75-3.75Zm3-1.155V38a1 1 0 0 0-1-1h-4a1 1 0 0 0-1 1v2.345a5.72 5.72 0 0 1 3-.845 5.72 5.72 0 0 1 3 .845ZM14 15.607v10.352l.001.041H13a1 1 0 0 0-1 1v6.5a1 1 0 0 0 1 1h4a1 1 0 0 0 1-1V27a1 1 0 0 0-1-1h-1.001a.561.561 0 0 0 .001-.041v-9.261l3.001 1.637-.001.048v9.612a3 3 0 0 0 2.288 2.915l10.492 2.561a.979.979 0 0 0 .475 0l10.459-2.561A3 3 0 0 0 45 27.996v-9.613l-.002-.069 5.981-3.262a1.001 1.001 0 0 0 0-1.756L32.459 3.194a1 1 0 0 0-.958 0l-18.52 10.102a1 1 0 0 0 0 1.756l1.019.555ZM16 28v4.5h-2V28h2Zm1.382-14.826h9.547a1 1 0 0 1 0 2h-9.547l14.598 7.963 2.646-1.444a1.001 1.001 0 0 1 .958 1.756l-3.125 1.704a1 1 0 0 1-.958 0L21 19.426v8.569c0 .461.315.862.763.972l10.253 2.504 10.222-2.503c.447-.11.762-.511.762-.972v-8.592l-4.408 2.404a1 1 0 1 1-.958-1.755l10.778-5.879L31.98 5.211l-14.598 7.963Z" fill="#4f4c4c" class="fill-000000"></path></svg>