<svg viewBox="0 0 48 48" xml:space="preserve" xmlns="http://www.w3.org/2000/svg"><path clip-rule="evenodd" d="M24 45C12.402 45 3 35.598 3 24S12.402 3 24 3s21 9.402 21 21-9.402 21-21 21zm0-40C13.507 5 5 13.507 5 24s8.507 19 19 19 19-8.507 19-19S34.493 5 24 5zm16 20h-1a1 1 0 1 1 0-2h1a1 1 0 1 1 0 2zm-6.021 8.204a.944.944 0 0 1-.261.514.974.974 0 0 1-1.129.172l.058.059.008.008c-.162-.067-.306-.13-.464-.195-5.189-2.162-8.213-3.856-9.867-4.938-1.313-.858-1.775-1.333-1.794-1.353-.045-.043-2.488-2.412-6.485-12.125h.001-.001l.067.067c-.01-.02-.012-.042-.02-.062a.965.965 0 0 1-.038-.661.932.932 0 0 1 .229-.407.967.967 0 0 1 1.101-.181c.009.004.02.005.028.01l-.023-.025-.043-.042h.001-.001c9.713 3.997 12.082 6.44 12.125 6.485.045.043 2.488 2.413 6.485 12.125l-.001-.001.001.001-.044-.044-.023-.022c.023.047.032.097.048.146a.986.986 0 0 1 .042.469zm-7.933-11.271c-.021-.021-2.016-1.927-9.187-5.073 3.146 7.171 5.055 9.167 5.095 9.208.021.021 2.016 1.928 9.187 5.073-3.146-7.172-5.055-9.167-5.095-9.208zM24 23a1 1 0 1 1 0 2 1 1 0 1 1 0-2zm0-13a1 1 0 0 1-1-1V8a1 1 0 1 1 2 0v1a1 1 0 0 1-1 1zm0 28a1 1 0 0 1 1 1v1a1 1 0 1 1-2 0v-1a1 1 0 0 1 1-1zM9 25H8a1 1 0 1 1 0-2h1a1 1 0 1 1 0 2z" fill-rule="evenodd" fill="#4f4c4c" class="fill-000000"></path></svg>